<svg width="51" height="51" viewBox="0 0 51 51" fill="none" xmlns="http://www.w3.org/2000/svg">
<circle cx="25.5" cy="25.5" r="25.5" fill="#00365E"/>
<path d="M15.75 17.1406C16.8125 17.1406 17.8398 17.207 18.832 17.3398C19.832 17.4648 20.7266 17.6836 21.5156 17.9961C22.3125 18.3008 22.9648 18.7148 23.4727 19.2383C23.9883 19.7617 24.2891 20.4141 24.375 21.1953L21.3281 22.0391C21.3281 21.5703 21.168 21.1875 20.8477 20.8906C20.5352 20.5859 20.1172 20.3477 19.5938 20.1758C19.0781 19.9961 18.4844 19.8711 17.8125 19.8008C17.1484 19.7305 16.4609 19.6953 15.75 19.6953C15.0547 19.6953 14.3711 19.7266 13.6992 19.7891C13.0273 19.8516 12.4219 19.9688 11.8828 20.1406C11.3516 20.3125 10.9219 20.5508 10.5938 20.8555C10.2656 21.1602 10.1016 21.5547 10.1016 22.0391V24.8281H24.375V30.8984C24.375 31.4219 24.2578 31.8906 24.0234 32.3047C23.7969 32.7109 23.4805 33.0664 23.0742 33.3711C22.6758 33.668 22.1992 33.9219 21.6445 34.1328C21.0977 34.3359 20.5039 34.5 19.8633 34.625C19.2305 34.75 18.5625 34.8398 17.8594 34.8945C17.1562 34.9492 16.4531 34.9766 15.75 34.9766C15.0312 34.9766 14.3242 34.9492 13.6289 34.8945C12.9336 34.8398 12.2734 34.75 11.6484 34.625C11.0234 34.5 10.4414 34.3359 9.90234 34.1328C9.37109 33.9219 8.90234 33.668 8.49609 33.3711C8.08984 33.0664 7.76172 32.7109 7.51172 32.3047C7.26172 31.8984 7.10938 31.4297 7.05469 30.8984L10.1016 30.0547C10.1016 30.5391 10.2656 30.9336 10.5938 31.2383C10.9219 31.543 11.3516 31.7812 11.8828 31.9531C12.4219 32.125 13.0273 32.2422 13.6992 32.3047C14.3711 32.3672 15.0547 32.3984 15.75 32.3984C16.4609 32.3984 17.1484 32.3672 17.8125 32.3047C18.4844 32.2344 19.0781 32.1133 19.5938 31.9414C20.1172 31.7617 20.5352 31.5195 20.8477 31.2148C21.168 30.9102 21.3281 30.5234 21.3281 30.0547V27.1953H7.05469V21.1953C7.05469 20.6719 7.16797 20.2109 7.39453 19.8125C7.62891 19.4062 7.94531 19.0547 8.34375 18.7578C8.75 18.4531 9.23047 18.1992 9.78516 17.9961C10.3398 17.7852 10.9375 17.6172 11.5781 17.4922C12.2266 17.3672 12.9023 17.2773 13.6055 17.2227C14.3164 17.168 15.0312 17.1406 15.75 17.1406ZM34.9922 16.9766C36.1953 16.9766 37.2656 17.082 38.2031 17.293C39.1484 17.5039 39.9453 17.7969 40.5938 18.1719C41.25 18.5469 41.75 19 42.0938 19.5312C42.4375 20.0547 42.6094 20.6328 42.6094 21.2656V22.9766C42.6094 23.6484 42.4766 24.1914 42.2109 24.6055C41.9531 25.0195 41.5938 25.3516 41.1328 25.6016C41.5156 25.7109 41.8672 25.8516 42.1875 26.0234C42.5156 26.1953 42.793 26.4062 43.0195 26.6562C43.2539 26.8984 43.4336 27.1836 43.5586 27.5117C43.6914 27.832 43.7578 28.2031 43.7578 28.625V30.9219C43.7578 31.5547 43.5273 32.1367 43.0664 32.668C42.6055 33.1914 41.9766 33.6445 41.1797 34.0273C40.3828 34.4102 39.4531 34.707 38.3906 34.918C37.3281 35.1289 36.1953 35.2344 34.9922 35.2344C34.3203 35.2344 33.6328 35.207 32.9297 35.1523C32.2266 35.1055 31.543 35.0391 30.8789 34.9531C30.2227 34.8672 29.6055 34.7695 29.0273 34.6602C28.4492 34.5508 27.9531 34.4375 27.5391 34.3203V17.8672C27.9531 17.75 28.4492 17.6406 29.0273 17.5391C29.6055 17.4297 30.2227 17.3359 30.8789 17.2578C31.543 17.1719 32.2266 17.1055 32.9297 17.0586C33.6328 17.0039 34.3203 16.9766 34.9922 16.9766ZM34.8984 27.2188C34.4766 27.2188 34.0547 27.2227 33.6328 27.2305C33.2109 27.2305 32.8008 27.2422 32.4023 27.2656C32.0117 27.2812 31.6367 27.3086 31.2773 27.3477C30.918 27.3867 30.5938 27.4375 30.3047 27.5V31.9531C30.4609 32.0078 30.6602 32.0703 30.9023 32.1406C31.1523 32.2109 31.4648 32.2773 31.8398 32.3398C32.2148 32.4023 32.6641 32.457 33.1875 32.5039C33.7109 32.543 34.3281 32.5625 35.0391 32.5625C35.9141 32.5625 36.6992 32.4922 37.3945 32.3516C38.0977 32.2109 38.6875 32.0234 39.1641 31.7891C39.6484 31.5547 40.0195 31.2852 40.2773 30.9805C40.5352 30.668 40.6641 30.3438 40.6641 30.0078V29C40.6641 28.6328 40.5 28.332 40.1719 28.0977C39.8438 27.8633 39.4102 27.6836 38.8711 27.5586C38.332 27.4258 37.7148 27.3359 37.0195 27.2891C36.332 27.2422 35.625 27.2188 34.8984 27.2188ZM30.3047 24.3125C30.7891 24.4062 31.3398 24.4688 31.957 24.5C32.582 24.5312 33.2891 24.5469 34.0781 24.5469C34.7578 24.5469 35.4336 24.5234 36.1055 24.4766C36.7773 24.4219 37.3828 24.3359 37.9219 24.2188C38.4609 24.0938 38.8984 23.9297 39.2344 23.7266C39.5703 23.5156 39.7422 23.25 39.75 22.9297V22.1797C39.75 21.8438 39.668 21.5234 39.5039 21.2188C39.3477 20.9062 39.082 20.6328 38.707 20.3984C38.3398 20.1641 37.8555 19.9766 37.2539 19.8359C36.6523 19.6953 35.9141 19.625 35.0391 19.625C34.3281 19.625 33.7109 19.6484 33.1875 19.6953C32.6641 19.7344 32.2148 19.7852 31.8398 19.8477C31.4648 19.9102 31.1523 19.9766 30.9023 20.0469C30.6602 20.1172 30.4609 20.1797 30.3047 20.2344V24.3125Z" fill="white"/>
</svg>
