<svg width="16" height="16" viewBox="0 0 16 16" fill="none" xmlns="http://www.w3.org/2000/svg">
<path d="M15.5312 1.94165H12.9875V2.47706C12.9875 2.73593 12.7776 2.94581 12.5188 2.94581C12.2599 2.94581 12.05 2.73593 12.05 2.47706V1.94165H9.975V2.47706C9.975 2.73593 9.76513 2.94581 9.50625 2.94581C9.24738 2.94581 9.0375 2.73593 9.0375 2.47706V1.94165H6.9625V2.47706C6.9625 2.73593 6.75262 2.94581 6.49375 2.94581C6.23488 2.94581 6.025 2.73593 6.025 2.47706V1.94165H3.95V2.47706C3.95 2.73593 3.74013 2.94581 3.48125 2.94581C3.22237 2.94581 3.0125 2.73593 3.0125 2.47706V1.94165H0.46875C0.209875 1.94165 0 2.15153 0 2.4104V4.01665H16V2.4104C16 2.15153 15.7901 1.94165 15.5312 1.94165Z" fill="#00365E" fill-opacity="0.5"/>
<path d="M0 5.42285V15.5312C0 15.7901 0.209875 15.9999 0.46875 15.9999H15.5312C15.7901 15.9999 16 15.7901 16 15.5312V5.42285V4.9541H0V5.42285ZM4.51875 6.99579C4.51875 6.73691 4.72863 6.52704 4.9875 6.52704H11.0125C11.2714 6.52704 11.4812 6.73691 11.4812 6.99579V13.0208C11.4812 13.2797 11.2714 13.4895 11.0125 13.4895H4.9875C4.72863 13.4895 4.51875 13.2797 4.51875 13.0208V6.99579Z" fill="#00365E" fill-opacity="0.5"/>
<path d="M10.5437 9.13169L8.33142 11.344C8.23989 11.4355 8.11993 11.4813 7.99999 11.4813C7.88005 11.4813 7.76005 11.4355 7.66855 11.344L6.41333 10.0888C6.23027 9.90569 6.23027 9.60891 6.41333 9.42585C6.59636 9.24279 6.89318 9.24279 7.07624 9.42585L7.99999 10.3496L10.5437 7.80588V7.4646H5.45624V12.5521H10.5437V9.13169Z" fill="#00365E" fill-opacity="0.5"/>
<path d="M12.9875 0.46875C12.9875 0.209875 12.7776 0 12.5187 0C12.2599 0 12.05 0.209875 12.05 0.46875V1.00416H12.9875V0.46875Z" fill="#00365E" fill-opacity="0.5"/>
<path d="M6.96252 0.46875C6.96252 0.209875 6.75265 0 6.49377 0C6.2349 0 6.02502 0.209875 6.02502 0.46875V1.00416H6.96252V0.46875Z" fill="#00365E" fill-opacity="0.5"/>
<path d="M3.95001 0.46875C3.95001 0.209875 3.74014 0 3.48126 0C3.22239 0 3.01251 0.209875 3.01251 0.46875V1.00416H3.95001V0.46875Z" fill="#00365E" fill-opacity="0.5"/>
<path d="M9.97498 0.46875C9.97498 0.209875 9.7651 0 9.50623 0C9.24735 0 9.03748 0.209875 9.03748 0.46875V1.00416H9.97498V0.46875Z" fill="#00365E" fill-opacity="0.5"/>
</svg>
