<svg width="16" height="14" viewBox="0 0 16 14" fill="none" xmlns="http://www.w3.org/2000/svg">
<path d="M14.3425 1.53929H7.17811L6.88877 0.981822C6.62215 0.384595 6.02928 0 5.37525 0H1.6575C0.742075 3.96408e-05 0 0.742075 0 1.65754V5.92031V9.51398V12.4626C0 13.2709 0.655182 13.926 1.46346 13.926H14.5365C15.3448 13.926 16 13.2709 16 12.4626V9.51398V5.92031V3.19679C16 2.2814 15.2579 1.53929 14.3425 1.53929ZM5.37041 1.66495C5.38314 1.69329 5.39669 1.72124 5.411 1.74879L5.70034 2.3063C5.98671 2.85794 6.5565 3.20416 7.17807 3.20416L14.335 3.20424V4.45681H1.66491V1.66491H5.37041V1.66495Z" fill="#00365E" fill-opacity="0.5"/>
</svg>
