<svg width="16" height="16" viewBox="0 0 16 16" fill="none" xmlns="http://www.w3.org/2000/svg">
<path d="M9.99991 8.66654C9.63126 8.66654 9.33329 8.96525 9.33329 9.33316V11.9999C9.33329 12.3672 9.03458 12.6665 8.66654 12.6665H6.66656V2.6666C6.66656 2.09727 6.3039 1.58861 5.75861 1.39928L5.56123 1.33324H8.66654C9.03458 1.33324 9.33329 1.63255 9.33329 1.99998V3.99996C9.33329 4.36788 9.63126 4.66658 9.99991 4.66658C10.3686 4.66658 10.6665 4.36788 10.6665 3.99996V1.99998C10.6665 0.89733 9.76919 0 8.66654 0H1.49999C1.4746 0 1.45336 0.0113524 1.4287 0.0146483C1.39659 0.0119628 1.36595 0 1.33336 0C0.598017 0 0 0.597895 0 1.33324V13.3331C0 13.9025 0.362667 14.4111 0.90795 14.6004L4.92 15.9378C5.05598 15.9798 5.19124 15.9998 5.33332 15.9998C6.06867 15.9998 6.66656 15.4018 6.66656 14.6665V13.9999H8.66654C9.76919 13.9999 10.6665 13.1025 10.6665 11.9999V9.33316C10.6665 8.96525 10.3686 8.66654 9.99991 8.66654Z" fill="#00365E" fill-opacity="0.5"/>
<path d="M15.8046 6.19524L13.1378 3.52864C12.9473 3.33797 12.6605 3.2806 12.4113 3.38387C12.1626 3.48726 11.9999 3.73054 11.9999 3.99995V5.99993H9.33331C8.96527 5.99993 8.66656 6.29851 8.66656 6.66655C8.66656 7.03459 8.96527 7.33317 9.33331 7.33317H11.9999V9.33315C11.9999 9.60256 12.1626 9.84584 12.4113 9.94924C12.6605 10.0525 12.9473 9.99513 13.1378 9.80458L15.8046 7.13786C16.0652 6.87724 16.0652 6.45586 15.8046 6.19524Z" fill="#00365E" fill-opacity="0.5"/>
</svg>
