<svg width="11" height="16" viewBox="0 0 11 16" fill="none" xmlns="http://www.w3.org/2000/svg">
<path d="M10.7898 4.22735L10.4409 3.18154C10.3706 2.97104 10.1736 2.8291 9.95172 2.8291H0.857218C0.635312 2.8291 0.438312 2.97107 0.368062 3.18154L0.0190933 4.22735C-0.0599692 4.46429 0.116375 4.70904 0.366156 4.70904H10.4427C10.6926 4.70904 10.8689 4.46429 10.7898 4.22735Z" fill="#00365E" fill-opacity="0.5"/>
<path d="M1.64244 15.3678C1.68244 15.7277 1.98669 16 2.34888 16H8.40257C8.76476 16 9.06901 15.7277 9.109 15.3678L10.1892 5.64661H0.562286L1.64244 15.3678Z" fill="#00365E" fill-opacity="0.5"/>
<path d="M4.46353 1.34369C4.46353 1.11972 4.64575 0.9375 4.86972 0.9375H6.25063C6.47459 0.9375 6.65681 1.11972 6.65681 1.34369V1.89159H7.59431V1.34369C7.59431 0.602781 6.99153 0 6.25063 0H4.86972C4.12881 0 3.52603 0.602781 3.52603 1.34369V1.89159H4.46353V1.34369Z" fill="#00365E" fill-opacity="0.5"/>
</svg>
