<svg width="16" height="16" viewBox="0 0 16 16" fill="none" xmlns="http://www.w3.org/2000/svg">
<path d="M13.1427 7.99987C12.8271 7.99987 12.5712 8.25571 12.5712 8.57131V14.2855C12.5712 14.6011 12.3154 14.8569 11.9998 14.8569H1.71426C1.39866 14.8569 1.14283 14.6011 1.14283 14.2855V2.85709C1.14283 2.54149 1.39866 2.28565 1.71426 2.28565H8.57131C8.88691 2.28565 9.14275 2.02982 9.14275 1.71422C9.14275 1.39862 8.88691 1.14282 8.57131 1.14282H1.71426C0.767501 1.14282 0 1.91032 0 2.85709V14.2855C0 15.2323 0.767501 15.9998 1.71426 15.9998H11.9998C12.9466 15.9998 13.7141 15.2323 13.7141 14.2855V8.57127C13.7141 8.25571 13.4583 7.99987 13.1427 7.99987Z" fill="#2387C8"/>
<path d="M15.3595 0.640782C14.9492 0.23043 14.3927 -5.7923e-05 13.8124 9.04044e-06C13.2318 -0.00166504 12.6747 0.229225 12.2656 0.64115L4.73879 8.1673C4.67635 8.23021 4.62924 8.30668 4.60108 8.39072L3.45825 11.8193C3.3585 12.1187 3.52039 12.4422 3.81981 12.542C3.87791 12.5613 3.93874 12.5712 3.99995 12.5712C4.06129 12.5711 4.12226 12.5613 4.18051 12.5421L7.60905 11.3993C7.69325 11.3712 7.76976 11.3238 7.83247 11.261L15.3592 3.73426C16.2135 2.88007 16.2136 1.49507 15.3595 0.640782ZM14.5513 2.92681L7.12276 10.3553L4.90335 11.0964L5.6422 8.87986L13.0735 1.45141C13.4821 1.04367 14.1439 1.04434 14.5516 1.45288C14.7464 1.64805 14.8561 1.91225 14.8569 2.18797C14.8577 2.46517 14.7476 2.73114 14.5513 2.92681Z" fill="#2387C8"/>
</svg>
