<svg width="14" height="26" viewBox="0 0 14 26" fill="none" xmlns="http://www.w3.org/2000/svg">
<path d="M13.6102 6.61017C13.6102 2.96532 10.6448 0 7 0C3.35515 0 0.389832 2.96532 0.389832 6.61017C0.389832 10.1065 3.11983 12.9696 6.55932 13.1979V25.5593C6.55932 25.803 6.75675 26 7 26C7.24326 26 7.44068 25.803 7.44068 25.5593V13.1979C10.8802 12.9696 13.6102 10.1065 13.6102 6.61017ZM4.79661 6.61017C3.82448 6.61017 3.0339 5.81959 3.0339 4.84746C3.0339 3.87532 3.82448 3.08475 4.79661 3.08475C5.76875 3.08475 6.55932 3.87532 6.55932 4.84746C6.55932 5.81959 5.76875 6.61017 4.79661 6.61017Z" fill="#00365E"/>
</svg>
