<svg width="16" height="16" viewBox="0 0 16 16" fill="none" xmlns="http://www.w3.org/2000/svg">
<path d="M15.7224 9.75331L14.2122 8.60331C14.259 8.20194 14.259 7.79669 14.2122 7.39532L15.7238 6.24466C16.007 6.02251 16.0827 5.63295 15.9024 5.32532L14.3313 2.68067C14.1504 2.37111 13.7649 2.23592 13.4229 2.36202L11.6429 3.05936C11.3084 2.82305 10.9502 2.62045 10.5736 2.4547L10.3004 0.613366C10.2512 0.259867 9.93974 -0.00288237 9.57339 2.38742e-05H6.42429C6.061 -0.00210112 5.75206 0.257711 5.70136 0.608022L5.42754 2.45467C5.05211 2.62202 4.6944 2.82477 4.35958 3.06001L2.57482 2.36133C2.23627 2.23136 1.85122 2.36492 1.67321 2.67399L0.100696 5.32332C-0.0844321 5.63145 -0.00821792 6.02529 0.279374 6.24666L1.78957 7.39666C1.7423 7.798 1.7423 8.20331 1.78957 8.60466L0.277994 9.75465C-0.00574698 9.97649 -0.0818007 10.3663 0.0986424 10.674L1.6691 13.3193C1.84984 13.6291 2.23546 13.7644 2.57754 13.638L4.35749 12.9406C4.69225 13.1771 5.05077 13.3799 5.4275 13.546L5.70133 15.386C5.74953 15.7385 6.05904 16.0014 6.42426 16H9.57336C9.93733 16.0028 10.2473 15.7429 10.2983 15.392L10.5722 13.5453C10.9476 13.3779 11.3052 13.1752 11.6401 12.94L13.4269 13.6393C13.7655 13.769 14.1503 13.6355 14.3285 13.3267L15.9058 10.6667C16.0824 10.3595 16.0048 9.97306 15.7224 9.75331ZM7.99883 11.3333C6.10839 11.3333 4.57586 9.84093 4.57586 7.99997C4.57586 6.15901 6.10836 4.66664 7.99883 4.66664C9.88929 4.66664 11.4218 6.15901 11.4218 7.99997C11.4195 9.84003 9.88833 11.3311 7.99883 11.3333Z" fill="#00365E"/>
</svg>
